<svg width="16" height="16" viewBox="0 0 16 16" fill="none" xmlns="http://www.w3.org/2000/svg">
        <g clip-path="url(#clip0_3563_6257)">
        <path d="M12.4896 1.51895H11.8415V0.870804C11.8415 0.698905 11.7732 0.534046 11.6516 0.412494C11.5301 0.290943 11.3652 0.222656 11.1933 0.222656C11.0214 0.222656 10.8566 0.290943 10.735 0.412494C10.6135 0.534046 10.5452 0.698905 10.5452 0.870804V1.51895H5.35999V0.870804C5.35999 0.698905 5.2917 0.534046 5.17015 0.412494C5.0486 0.290943 4.88374 0.222656 4.71184 0.222656C4.53994 0.222656 4.37508 0.290943 4.25353 0.412494C4.13198 0.534046 4.06369 0.698905 4.06369 0.870804V1.51895H3.41554C2.55636 1.51998 1.73267 1.86175 1.12513 2.46928C0.517599 3.07681 0.175834 3.90051 0.174805 4.75969L0.174805 12.5375C0.175834 13.3967 0.517599 14.2204 1.12513 14.8279C1.73267 15.4354 2.55636 15.7772 3.41554 15.7782H12.4896C13.3488 15.7772 14.1725 15.4354 14.78 14.8279C15.3876 14.2204 15.7293 13.3967 15.7304 12.5375V4.75969C15.7293 3.90051 15.3876 3.07681 14.78 2.46928C14.1725 1.86175 13.3488 1.51998 12.4896 1.51895ZM1.4711 4.75969C1.4711 4.24399 1.67596 3.74942 2.04062 3.38476C2.40527 3.02011 2.89985 2.81525 3.41554 2.81525H12.4896C13.0053 2.81525 13.4999 3.02011 13.8645 3.38476C14.2292 3.74942 14.4341 4.24399 14.4341 4.75969V5.40784H1.4711V4.75969ZM12.4896 14.4819H3.41554C2.89985 14.4819 2.40527 14.2771 2.04062 13.9124C1.67596 13.5477 1.4711 13.0532 1.4711 12.5375V6.70414H14.4341V12.5375C14.4341 13.0532 14.2292 13.5477 13.8645 13.9124C13.4999 14.2771 13.0053 14.4819 12.4896 14.4819Z" fill="#444444"></path>
        <path d="M7.95269 10.9171C8.48963 10.9171 8.92491 10.4818 8.92491 9.94488C8.92491 9.40793 8.48963 8.97266 7.95269 8.97266C7.41575 8.97266 6.98047 9.40793 6.98047 9.94488C6.98047 10.4818 7.41575 10.9171 7.95269 10.9171Z" fill="#444444"></path>
        <path d="M4.71148 10.9171C5.24842 10.9171 5.6837 10.4818 5.6837 9.94488C5.6837 9.40793 5.24842 8.97266 4.71148 8.97266C4.17454 8.97266 3.73926 9.40793 3.73926 9.94488C3.73926 10.4818 4.17454 10.9171 4.71148 10.9171Z" fill="#444444"></path>
        <path d="M11.1929 10.9171C11.7299 10.9171 12.1651 10.4818 12.1651 9.94488C12.1651 9.40793 11.7299 8.97266 11.1929 8.97266C10.656 8.97266 10.2207 9.40793 10.2207 9.94488C10.2207 10.4818 10.656 10.9171 11.1929 10.9171Z" fill="#444444"></path>
        </g>
        <defs>
        <clipPath id="clip0_3563_6257">
        <rect width="15.5556" height="15.5556" fill="white" transform="translate(0.174805 0.222656)"></rect>
        </clipPath>
        </defs>
        </svg>