<svg width="17" height="18" viewBox="0 0 17 18" fill="none" xmlns="http://www.w3.org/2000/svg">
                    <path fill-rule="evenodd" clip-rule="evenodd" d="M8.5 0.962891L14.0639 2.97416L14.11 3.68289H2.89L2.94274 2.97416L8.5 0.962891ZM2.21965 6.67436H1.919C1.33105 6.67436 0.856681 6.20653 0.85 5.6201C0.85 5.04026 1.33105 4.56584 1.919 4.56584L15.081 4.53289C15.669 4.53289 16.15 5.00731 16.15 5.58715C16.15 6.167 15.669 6.64142 15.081 6.64142H14.7803V12.4399C14.7803 12.7693 14.5131 13.0329 14.179 13.0329C13.845 13.0329 13.5777 12.7693 13.5777 12.4399V6.64142L11.2393 6.64801V12.4399C11.2393 12.7693 10.9721 13.0329 10.638 13.0329C10.3039 13.0329 10.0367 12.7693 10.0367 12.4399V6.6546L6.96332 6.66119V12.4399C6.96332 12.7693 6.69607 13.0329 6.36201 13.0329C6.02795 13.0329 5.7607 12.7693 5.7607 12.4399V6.66777L3.42227 6.67436V12.4399C3.42227 12.7693 3.15502 13.0329 2.82096 13.0329C2.4869 13.0329 2.21965 12.7693 2.21965 12.4399V6.67436ZM1.53 14.3079C1.53 13.9773 1.79302 13.7129 2.12179 13.7129H14.8782C15.207 13.7129 15.47 13.9773 15.47 14.3079C15.47 14.6384 15.207 14.9029 14.8782 14.9029H2.12179C1.79302 14.9029 1.53 14.6384 1.53 14.3079ZM17 16.4329C17 15.8719 16.5219 15.4129 15.9375 15.4129H1.0625C0.478125 15.4129 0 15.8719 0 16.4329C0 16.9939 0.478125 17.4529 1.0625 17.4529H15.9375C16.5219 17.4529 17 16.9939 17 16.4329Z" fill="white"></path>
                </svg>