<svg width="19" height="19" viewBox="0 0 19 19" fill="none" xmlns="http://www.w3.org/2000/svg">
<g opacity="1">
<path fill-rule="evenodd" clip-rule="evenodd" d="M19 9.5C19 14.748 14.748 19 9.5 19C4.25196 19 0 14.748 0 9.5C0 4.25196 4.25196 0 9.5 0C14.748 0 19 4.25196 19 9.5ZM10.2611 9.49747L13.5003 6.25832C13.7082 6.05043 13.7082 5.70841 13.5003 5.50051C13.2924 5.29261 12.9504 5.29261 12.7425 5.50051L9.50334 8.73966L6.26419 5.49716C6.05294 5.29261 5.71427 5.29261 5.50306 5.49716C5.29513 5.70505 5.29513 6.04707 5.50306 6.25497L8.74217 9.49411L5.49967 12.7366C5.29178 12.9445 5.29178 13.2865 5.49967 13.4944C5.60365 13.5984 5.7411 13.652 5.87858 13.652C6.01606 13.652 6.15354 13.5984 6.25752 13.4944L9.49663 10.2553L12.7358 13.4944C12.8397 13.5984 12.9772 13.652 13.1147 13.652C13.2522 13.652 13.3897 13.5984 13.4936 13.4944C13.7015 13.2865 13.7015 12.9445 13.4936 12.7366L10.2611 9.49747Z" fill="#fff"></path>
</g>
</svg>