<svg width="17" height="17" viewBox="0 0 17 17" fill="none" xmlns="http://www.w3.org/2000/svg">
        <g clip-path="url(#clip0_301_36201)">
        <path d="M10.3312 16.4997C9.21083 16.4989 8.10312 16.2631 7.07952 15.8077C6.05593 15.3523 5.1392 14.6873 4.38849 13.8557C3.63211 13.0232 3.06143 12.0392 2.71432 10.9693C2.36721 9.89932 2.2516 8.76778 2.37516 7.64973C2.57436 5.90974 3.33342 4.28155 4.53806 3.0103C5.74271 1.73905 7.32773 0.893536 9.05449 0.601066C10.1708 0.428649 11.3099 0.475067 12.4085 0.737732C12.6961 0.811638 12.9588 0.961068 13.1694 1.17056C13.3799 1.38005 13.5306 1.64199 13.6059 1.92928C13.6812 2.21657 13.6784 2.51877 13.5978 2.8046C13.5171 3.09044 13.3615 3.34953 13.1472 3.55507C10.1072 6.3324 10.3712 10.6511 13.6852 13.1617C13.9195 13.3456 14.1002 13.589 14.2086 13.8665C14.317 14.1439 14.349 14.4453 14.3013 14.7394C14.2537 15.0334 14.1281 15.3093 13.9377 15.5384C13.7472 15.7674 13.4989 15.9412 13.2185 16.0417C12.2864 16.3463 11.3118 16.5009 10.3312 16.4997ZM10.3818 1.83307C10.0075 1.83217 9.63372 1.86047 9.26382 1.91773C7.82617 2.16088 6.5064 2.86443 5.50317 3.92249C4.49993 4.98055 3.86753 6.33585 3.70116 7.7844C3.59716 8.71776 3.693 9.66257 3.98232 10.556C4.27163 11.4495 4.74779 12.2712 5.37916 12.9664C6.30338 13.9528 7.49401 14.6499 8.80661 14.9729C10.1192 15.296 11.4973 15.2312 12.7738 14.7864C12.8288 14.7658 12.8774 14.731 12.9147 14.6855C12.9519 14.6401 12.9765 14.5856 12.9859 14.5276C12.9953 14.4696 12.9892 14.4102 12.9683 14.3553C12.9473 14.3004 12.9122 14.252 12.8665 14.2151C8.91382 11.2297 8.59982 5.89107 12.2345 2.5824C12.2762 2.54367 12.3063 2.49409 12.3214 2.43921C12.3364 2.38433 12.3359 2.32633 12.3198 2.27173C12.306 2.21379 12.2765 2.16074 12.2347 2.11832C12.1929 2.0759 12.1402 2.04573 12.0825 2.03107C11.5257 1.89675 10.9546 1.83027 10.3818 1.83307Z" fill="#444444"></path>
        </g>
        <defs>
        <clipPath id="clip0_301_36201">
        <rect width="16" height="16" fill="white" transform="translate(0.331055 0.5)"></rect>
        </clipPath>
        </defs>
        </svg>