<svg width="30" height="30" viewBox="0 0 30 30" fill="none" xmlns="http://www.w3.org/2000/svg">
        <path fill-rule="evenodd" clip-rule="evenodd" d="M12.8684 2.5422C12.9631 3.71346 12.478 5.4171 11.4842 5.21598C10.1828 4.96753 9.75693 2.94445 9.61496 1.84418C9.47299 0.755736 10.313 -0.155242 11.3659 0.0222213C12.4189 0.199685 12.7738 1.37094 12.8684 2.5422ZM4.44372 8.60413C5.34287 8.15455 4.69217 6.51006 3.8995 5.63457C3.10683 4.75909 2.11304 4.06107 1.16657 4.5698C0.220097 5.07852 0.113619 6.30893 0.894457 7.08977C1.67529 7.87061 3.2488 9.2075 4.44372 8.60413ZM4.23191 11.621C4.83528 10.8047 6.66907 9.14835 8.00596 8.45032C9.34284 7.7523 10.8809 7.12527 13.8622 7.31456C16.8436 7.50385 19.0205 9.26665 19.825 10.083C20.6295 10.8993 22.3686 13.088 22.5106 15.6672C22.6405 18.2406 22.3463 19.0001 21.6986 20.6723L21.6943 20.6835C21.0436 22.3634 19.7658 23.9961 19.198 24.6941C18.6301 25.3921 17.7309 25.7826 17.376 25.6406C17.0211 25.5105 16.7253 25.2857 17.5416 24.1972C18.358 23.1088 19.5529 21.0265 19.7422 18.9325C19.9315 16.8384 19.6594 15.3477 18.5709 13.7506C17.4825 12.1534 15.9445 10.8165 14.3118 10.1658C12.9039 9.59792 10.8454 9.72806 9.48482 9.91735C8.19525 10.1066 6.78738 11.0058 5.76992 11.8458C4.50402 12.9106 3.14347 13.088 4.23191 11.621ZM18.9259 6.42724C19.4937 7.26724 21.0436 6.41541 21.8008 5.51627C22.5579 4.61712 23.1376 3.54051 22.5106 2.67686C21.8836 1.8132 20.6532 1.86052 19.9788 2.72418C19.3044 3.58783 18.1805 5.31514 18.9259 6.42724ZM27.1247 12.7686C25.9889 13.0644 24.2261 12.8751 24.2498 11.8694C24.2852 10.5326 26.19 9.76355 27.243 9.44412C28.2841 9.11285 29.3252 9.78721 29.337 10.852C29.3489 11.9168 28.2604 12.4728 27.1247 12.7686ZM24.7585 18.755C24.1788 19.5832 25.5393 20.7189 26.6514 21.0975C27.7635 21.4761 28.9703 21.6181 29.5618 20.7308C30.1415 19.8316 29.6565 18.7077 28.5917 18.4001C27.5387 18.0807 25.5275 17.6666 24.7585 18.755ZM21.363 28.4208C20.7241 27.4271 20.3456 25.6997 21.3157 25.404C22.5934 25.0136 23.9185 26.5871 24.5692 27.4862C25.2081 28.3854 24.8886 29.5803 23.883 29.9234C22.8655 30.2665 22.0019 29.4028 21.363 28.4208Z" fill="#2378CD"></path></svg>