<svg width="16" height="18" viewBox="0 0 16 18" fill="none" xmlns="http://www.w3.org/2000/svg">
        <path d="M7.92174 17.8948L7.40539 17.4522C6.69355 16.8561 0.478027 11.4882 0.478027 7.56163C0.478027 3.45059 3.8107 0.11792 7.92174 0.11792C12.0328 0.11792 15.3655 3.45059 15.3655 7.56163C15.3655 11.4882 9.14994 16.8561 8.44105 17.4551L7.92174 17.8948ZM7.92174 1.72747C4.70115 1.73111 2.09126 4.34101 2.08761 7.5616C2.08761 10.0283 5.91164 13.9689 7.92174 15.7725C9.93188 13.9682 13.7559 10.0253 13.7559 7.5616C13.7522 4.34101 11.1424 1.73115 7.92174 1.72747Z" fill="#444444"></path>
        <path d="M7.92182 10.5123C6.29223 10.5123 4.97119 9.19129 4.97119 7.56171C4.97119 5.93213 6.29223 4.61108 7.92182 4.61108C9.5514 4.61108 10.8724 5.93213 10.8724 7.56171C10.8724 9.19129 9.55143 10.5123 7.92182 10.5123ZM7.92182 6.08636C7.10702 6.08636 6.4465 6.74688 6.4465 7.56167C6.4465 8.37647 7.10702 9.03699 7.92182 9.03699C8.73661 9.03699 9.39713 8.37647 9.39713 7.56167C9.39713 6.74688 8.73664 6.08636 7.92182 6.08636Z" fill="#444444"></path>
        </svg>