<svg width="31" height="30" viewBox="0 0 31 30" fill="none" xmlns="http://www.w3.org/2000/svg">
                <path fill-rule="evenodd" clip-rule="evenodd" d="M14.0924 21.0397C13.7564 21.0397 13.4387 20.8809 13.2347 20.6085L10.4763 16.9264C10.1175 16.4474 10.211 15.7656 10.6846 15.4028C11.1591 15.0399 11.8333 15.135 12.192 15.6134L14.0061 18.0348L18.5689 10.6294C18.8831 10.12 19.5463 9.96413 20.0513 10.2811C20.5557 10.5985 20.7098 11.2694 20.3957 11.7793L15.0058 20.5269C14.8187 20.831 14.4954 21.0223 14.1415 21.0386C14.1249 21.0393 14.1086 21.0397 14.0924 21.0397ZM13.8286 2.34425C13.8286 2.2172 13.9348 2.10983 14.0605 2.10983H16.756C16.8817 2.10983 16.9879 2.2172 16.9879 2.34425V3.33622C16.9879 3.46328 16.8817 3.57065 16.756 3.57065H14.0605C13.9348 3.57065 13.8286 3.46328 13.8286 3.33622V2.34425ZM21.8661 3.59737H19.0598C19.0693 3.51157 19.0751 3.4246 19.0751 3.33622V2.34425C19.0751 1.05163 18.0348 0 16.756 0H14.0605C12.7818 0 11.7414 1.05163 11.7414 2.34425V3.33622C11.7414 3.4246 11.7472 3.51157 11.7567 3.59737H8.95045C8.1266 3.59737 7.45825 4.27299 7.45825 5.1059V26.8538C7.45825 27.6872 8.1266 28.3622 8.95045 28.3622H9.25215C9.2154 28.4814 9.19522 28.6081 9.19522 28.7395C9.19522 29.4354 9.75377 30 10.4423 30C11.1307 30 11.6887 29.4354 11.6887 28.7395C11.6887 28.6081 11.6686 28.4814 11.6318 28.3622H19.1848C19.148 28.4814 19.1278 28.6081 19.1278 28.7395C19.1278 29.4354 19.6858 30 20.3743 30C21.0627 30 21.6213 29.4354 21.6213 28.7395C21.6213 28.6081 21.6011 28.4814 21.5644 28.3622H21.8661C22.69 28.3622 23.3583 27.6872 23.3583 26.8538V5.1059C23.3583 4.27299 22.69 3.59737 21.8661 3.59737Z" fill="#2378CD"></path>
                </svg>