<svg width="18" height="19" viewBox="0 0 18 19" fill="none" xmlns="http://www.w3.org/2000/svg">
                    <path fill-rule="evenodd" clip-rule="evenodd" d="M8.62864 1.32244L9.05842 0.462891L9.48819 1.32244L10.4236 1.44885L9.741 2.13143L9.91797 3.06682L9.05842 2.63705L8.22415 3.06682L8.37583 2.13143L7.69325 1.44885L8.62864 1.32244ZM5.41797 6.50502V5.46851H12.168V6.50502H14.9489V18.4629H10.98V15.505H9.13426V18.4629H8.42639V15.505H6.65673V18.4374H2.63707V6.50502H5.41797ZM13.6595 9.48842H11.9655V7.79435H13.6595V9.48842ZM10.98 9.48842H9.28595V7.79435H10.98V9.48842ZM8.27471 9.48842H6.58089V7.79435H8.27471V9.48842ZM5.59519 9.48842H3.90111V7.79435H5.59519V9.48842ZM13.6595 12.0668H11.9655V10.373H13.6595V12.0668ZM10.98 12.0668H9.28595V10.373H10.98V12.0668ZM8.27471 12.0668H6.58089V10.373H8.27471V12.0668ZM5.59519 12.0668H3.90111V10.373H5.59519V12.0668ZM13.6595 14.5191H11.9655V12.8505H13.6595V14.5191ZM10.98 14.5191H9.28595V12.8505H10.98V14.5191ZM8.27471 14.5191H6.58089V12.8505H8.27471V14.5191ZM5.59519 14.5191H3.90111V12.8505H5.59519V14.5191ZM5.16518 3.34486L5.99945 2.91509L6.859 3.34486L6.68204 2.40947L7.3899 1.72688L6.42923 1.60048L5.99945 0.74093L5.56968 1.60048L4.63429 1.72688L5.31687 2.40947L5.16518 3.34486ZM12.1173 2.91509L11.2578 3.34486L11.4347 2.40947L10.7522 1.72688L11.6876 1.60048L12.1173 0.74093L12.5474 1.60048L13.4825 1.72688L12.8002 2.40947L12.9769 3.34486L12.1173 2.91509ZM2.53587 2.43465L1.5752 2.56105L2.25778 3.21836L2.10609 4.17903L2.94036 3.72397L3.79991 4.17903L3.64823 3.21836L4.33081 2.56105L3.37014 2.43465L2.94036 1.57535L2.53587 2.43465ZM13.8113 2.56105L14.7464 2.43465L15.1764 1.57535L15.6062 2.43465L16.5416 2.56105L15.859 3.21836L16.036 4.17903L15.1764 3.72397L14.3169 4.17903L14.4936 3.21836L13.8113 2.56105Z" fill="white"></path>
                </svg>