<svg width="17" height="17" viewBox="0 0 17 17" fill="none" xmlns="http://www.w3.org/2000/svg">
        <path d="M5.27181 9.25043C4.65374 9.25043 4.04956 9.06716 3.53565 8.72378C3.02175 8.3804 2.62121 7.89234 2.38469 7.32132C2.14816 6.7503 2.08628 6.12197 2.20686 5.51578C2.32743 4.90959 2.62506 4.35277 3.0621 3.91573C3.49914 3.47869 4.05596 3.18106 4.66215 3.06048C5.26834 2.9399 5.89668 3.00179 6.4677 3.23831C7.03871 3.47484 7.52677 3.87537 7.87015 4.38928C8.21353 4.90318 8.39681 5.50737 8.39681 6.12544C8.39589 6.95395 8.06636 7.74828 7.4805 8.33413C6.89465 8.91998 6.10033 9.24952 5.27181 9.25043ZM5.27181 4.38932C4.92844 4.38932 4.59278 4.49115 4.30728 4.68191C4.02178 4.87268 3.79925 5.14382 3.66785 5.46105C3.53645 5.77829 3.50207 6.12736 3.56906 6.46413C3.63605 6.80091 3.80139 7.11025 4.04419 7.35305C4.28699 7.59585 4.59634 7.7612 4.93311 7.82819C5.26988 7.89518 5.61896 7.8608 5.93619 7.72939C6.25342 7.59799 6.52457 7.37547 6.71533 7.08997C6.9061 6.80446 7.00792 6.46881 7.00792 6.12544C7.00792 5.66499 6.82501 5.2234 6.49943 4.89782C6.17384 4.57224 5.73225 4.38932 5.27181 4.38932ZM10.4801 16.1949V15.8477C10.4801 14.4663 9.93141 13.1416 8.95466 12.1648C7.97791 11.1881 6.65315 10.6393 5.27181 10.6393C3.89047 10.6393 2.56571 11.1881 1.58896 12.1648C0.61221 13.1416 0.0634766 14.4663 0.0634766 15.8477L0.0634766 16.1949C0.0634766 16.3791 0.136641 16.5557 0.266875 16.6859C0.397108 16.8162 0.573743 16.8893 0.757921 16.8893C0.942099 16.8893 1.11873 16.8162 1.24897 16.6859C1.3792 16.5557 1.45237 16.3791 1.45237 16.1949V15.8477C1.45237 14.8347 1.85477 13.8632 2.57105 13.1469C3.28734 12.4306 4.25883 12.0282 5.27181 12.0282C6.28479 12.0282 7.25628 12.4306 7.97256 13.1469C8.68885 13.8632 9.09125 14.8347 9.09125 15.8477V16.1949C9.09125 16.3791 9.16442 16.5557 9.29465 16.6859C9.42489 16.8162 9.60152 16.8893 9.7857 16.8893C9.96988 16.8893 10.1465 16.8162 10.2767 16.6859C10.407 16.5557 10.4801 16.3791 10.4801 16.1949ZM16.7301 12.7227C16.7301 11.7842 16.4585 10.8659 15.948 10.0785C15.4375 9.29104 14.71 8.6682 13.8534 8.28513C12.9967 7.90207 12.0475 7.77515 11.1202 7.9197C10.193 8.06425 9.32747 8.47409 8.62806 9.09974C8.55915 9.1603 8.50292 9.2339 8.46261 9.31632C8.42231 9.39873 8.39874 9.48831 8.39325 9.57988C8.38777 9.67145 8.40048 9.76321 8.43066 9.84984C8.46084 9.93647 8.50788 10.0163 8.56907 10.0846C8.63026 10.153 8.70439 10.2085 8.78717 10.248C8.86995 10.2876 8.95975 10.3103 9.05137 10.315C9.14299 10.3196 9.23462 10.306 9.32097 10.275C9.40732 10.2441 9.48667 10.1963 9.55445 10.1345C10.0541 9.68767 10.6723 9.39503 11.3346 9.29187C11.9969 9.1887 12.6748 9.27942 13.2867 9.55307C13.8985 9.82673 14.4181 10.2716 14.7827 10.834C15.1472 11.3965 15.3412 12.0524 15.3413 12.7227C15.3413 12.9068 15.4144 13.0835 15.5447 13.2137C15.6749 13.3439 15.8515 13.4171 16.0357 13.4171C16.2199 13.4171 16.3965 13.3439 16.5267 13.2137C16.657 13.0835 16.7301 12.9068 16.7301 12.7227ZM12.2163 6.47266C11.5982 6.47266 10.994 6.28938 10.4801 5.946C9.96619 5.60262 9.56565 5.11456 9.32913 4.54354C9.09261 3.97252 9.03072 3.34419 9.1513 2.738C9.27188 2.13181 9.56951 1.57499 10.0065 1.13795C10.4436 0.70091 11.0004 0.403282 11.6066 0.282704C12.2128 0.162125 12.8411 0.22401 13.4121 0.460534C13.9832 0.697058 14.4712 1.0976 14.8146 1.6115C15.158 2.1254 15.3413 2.72959 15.3413 3.34766C15.3403 4.17618 15.0108 4.9705 14.4249 5.55635C13.8391 6.1422 13.0448 6.47174 12.2163 6.47266ZM12.2163 1.61155C11.8729 1.61155 11.5372 1.71337 11.2517 1.90413C10.9662 2.0949 10.7437 2.36604 10.6123 2.68328C10.4809 3.00051 10.4465 3.34958 10.5135 3.68636C10.5805 4.02313 10.7458 4.33247 10.9886 4.57527C11.2314 4.81807 11.5408 4.98342 11.8776 5.05041C12.2143 5.1174 12.5634 5.08302 12.8806 4.95161C13.1979 4.82021 13.469 4.59769 13.6598 4.31219C13.8505 4.02669 13.9524 3.69103 13.9524 3.34766C13.9524 2.88721 13.7695 2.44563 13.4439 2.12004C13.1183 1.79446 12.6767 1.61155 12.2163 1.61155Z" fill="#444444"></path>
        </svg>