<svg width="31" height="30" viewBox="0 0 31 30" fill="none" xmlns="http://www.w3.org/2000/svg">
    <path fill-rule="evenodd" clip-rule="evenodd" d="M3.73904 0.778068C5.07908 -0.18477 6.94246 0.0177587 7.15737 0.0177587C7.37228 0.0177587 7.52851 -0.00176065 7.9582 0.68059C8.38789 1.36294 11.357 6.52883 11.357 6.52883C11.357 6.52883 12.0602 7.28914 10.9468 8.28333C9.83343 9.27752 8.05587 10.7981 8.05587 10.7981C8.05587 10.7981 7.33316 11.4024 8.05587 12.6306C8.77858 13.8588 9.98966 16.1396 12.3727 18.5568C14.7557 20.9741 18.4867 22.8066 18.4867 22.8066C18.4867 22.8066 19.1898 23.2745 19.8344 22.6116C20.479 21.9489 22.4519 19.668 22.4519 19.668C22.4519 19.668 23.1746 18.7518 24.3466 19.4536C25.5186 20.1554 30.3433 22.8845 30.3433 22.8845C30.3433 22.8845 30.9684 23.0211 30.48 25.068C29.9917 27.1148 29.601 27.6217 28.683 28.1285C27.7649 28.6354 25.8897 30 23.9169 30C21.944 30 20.2641 29.5321 17.7053 28.4989C15.1464 27.4657 11.4742 25.6527 6.669 20.2333C1.8638 14.8139 0.672281 8.24441 0.672281 8.24441C0.672281 8.24441 0.555168 5.45669 1.37555 3.97511C2.19594 2.49353 2.76242 1.47982 3.73904 0.778068Z" fill="#2378CD"></path>
    </svg>