<svg width="31" height="30" viewBox="0 0 31 30" fill="none" xmlns="http://www.w3.org/2000/svg">
        <path fill-rule="evenodd" clip-rule="evenodd" d="M28.6932 15.1468C28.6932 11.8356 27.9707 8.78278 26.817 5.27202C25.6634 1.74951 22.7268 0 21.107 0H15.8282L15.8048 0.0821918L15.7815 0H10.5027C8.8829 0 5.94631 1.76125 4.79266 5.27202C3.639 8.79452 2.9165 11.8356 2.9165 15.135C2.9165 15.2172 2.92816 15.2994 2.95146 15.3816V23.2016C2.95146 24.5401 3.97694 25.6438 5.28209 25.7613V29.225C5.28209 29.6477 5.63168 30 6.05119 30H9.03439C9.4539 30 9.8035 29.6477 9.8035 29.225V25.773H21.5731V29.225C21.5731 29.6477 21.9227 30 22.3422 30H25.3254C25.745 30 26.0946 29.6477 26.0946 29.225V25.773H26.1645C27.5745 25.773 28.7165 24.6223 28.7165 23.2016V15.1468H28.6932ZM9.03439 2.68885C9.03439 2.17221 9.4539 1.73777 9.97829 1.73777H21.2585C21.7712 1.73777 22.2024 2.16047 22.2024 2.68885V2.79452C22.2024 3.31115 21.7829 3.7456 21.2585 3.7456H9.97829C9.46556 3.7456 9.03439 3.3229 9.03439 2.79452V2.68885ZM5.82978 20.5832C5.82978 21.546 6.59889 22.3209 7.55444 22.3209C8.51 22.3209 9.27911 21.546 9.27911 20.5832C9.27911 19.6204 8.51 18.8454 7.55444 18.8454C6.59889 18.8454 5.82978 19.6204 5.82978 20.5832ZM23.7756 22.3209C22.82 22.3209 22.0509 21.546 22.0509 20.5832C22.0509 19.6204 22.82 18.8454 23.7756 18.8454C24.7311 18.8454 25.5002 19.6204 25.5002 20.5832C25.5002 21.546 24.7311 22.3209 23.7756 22.3209ZM6.40079 15.2407H24.7311C25.1507 15.2407 25.5002 14.8885 25.5119 14.4658L24.2301 6.22309C24.2301 5.80039 23.8805 5.44814 23.4609 5.44814H7.68263C7.26312 5.44814 6.91352 5.80039 6.91352 6.22309L5.63168 14.4658C5.63168 14.8885 5.98127 15.2407 6.40079 15.2407Z" fill="#2378CD"></path>
        </svg>