<svg width="21" height="22" viewBox="0 0 21 22" fill="none" xmlns="http://www.w3.org/2000/svg">
                    <path fill-rule="evenodd" clip-rule="evenodd" d="M17.708 8.07988C17.123 8.04131 16.8904 8.04804 16.4543 8.06066C16.3335 8.06416 16.1971 8.06811 16.0332 8.07167C14.654 8.10451 13.3077 8.30975 12.0188 8.77769C11.5344 8.9583 11.05 9.05682 10.5739 9.07324H10.4261C9.94996 9.05682 9.4656 8.9583 8.98123 8.77769C7.69234 8.30154 6.34597 8.10451 4.96677 8.07167C4.80291 8.06811 4.66648 8.06416 4.54567 8.06066C4.10964 8.04804 3.87701 8.04131 3.29202 8.07988C3.29202 8.07988 1.47772 8.14556 0 8.48215V8.75306C0.0109461 8.82421 0.0209799 8.89536 0.0310138 8.96651C0.0510816 9.10881 0.0711493 9.25111 0.0985145 9.39341C0.100632 9.40611 0.10275 9.41977 0.104955 9.434L0.104957 9.43402L0.104957 9.43402C0.119853 9.53012 0.138767 9.65214 0.188819 9.68074C0.817014 9.99484 0.872953 10.5746 0.927581 11.1408C0.932921 11.1962 0.938249 11.2514 0.944097 11.3062C1.05903 12.5869 1.3792 13.7527 2.56138 14.4915C3.47263 15.0662 4.48241 15.0744 5.48397 14.9841C7.21618 14.8281 8.53792 14.0564 9.2111 12.3817C9.31783 12.119 9.41634 11.8542 9.51486 11.5894C9.61337 11.3247 9.71189 11.0599 9.81861 10.7972L9.82273 10.7868C9.94436 10.4785 10.0615 10.1815 10.4918 10.1815C10.922 10.1815 11.0392 10.4785 11.1608 10.7868L11.165 10.7972C11.2497 11.0142 11.3317 11.2326 11.4138 11.4513L11.4138 11.4513L11.4138 11.4513L11.4138 11.4513C11.5304 11.7621 11.6472 12.0733 11.7725 12.3817C12.4539 14.0564 13.7756 14.8281 15.4996 14.9841C16.5094 15.0744 17.5109 15.0662 18.4222 14.4915C19.6044 13.7445 19.9246 12.5869 20.0559 11.3062C20.0622 11.2469 20.0679 11.1871 20.0735 11.1271C20.1266 10.5653 20.1806 9.99231 20.8112 9.68074C20.8652 9.65375 20.8803 9.54355 20.8931 9.45046L20.8931 9.45043L20.8931 9.45039L20.8931 9.45035C20.8959 9.43023 20.8986 9.41091 20.9015 9.39341C20.9289 9.25111 20.9489 9.10882 20.969 8.96653C20.979 8.89537 20.9891 8.82422 21 8.75306V8.48215V8.47394C19.5223 8.13735 17.708 8.07988 17.708 8.07988ZM0.508991 9.22101C0.508991 9.2128 0.506939 9.19638 0.504887 9.17996C0.502834 9.16354 0.500782 9.14712 0.500782 9.13891L1.08366 8.91725C1.14934 8.90904 1.22938 8.90084 1.30942 8.89263C1.38946 8.88442 1.46951 8.87621 1.53518 8.868C1.54339 8.95009 1.5516 9.03219 1.55981 9.12249C1.2068 9.15533 0.853792 9.18817 0.508991 9.22101ZM1.91282 10.748C1.42846 11.2323 1.39562 11.4622 1.69937 12.0369L1.74756 11.9883C2.84025 10.8875 3.94855 9.77105 5.04887 8.65455C5.01068 8.65281 4.97245 8.65083 4.93421 8.64885L4.9342 8.64885L4.93419 8.64885C4.42994 8.62273 3.92459 8.59655 3.49726 9.1307C3.16841 9.5461 2.78278 9.91285 2.39739 10.2794L2.39738 10.2794L2.39738 10.2794C2.23438 10.4344 2.07143 10.5894 1.91282 10.748ZM12.3964 12.0943C12.0927 11.5197 12.1255 11.2898 12.6099 10.8054C12.7684 10.6469 12.9314 10.4919 13.0944 10.3369L13.0944 10.3369C13.4798 9.97032 13.8654 9.60357 14.1943 9.18817C14.6216 8.65401 15.127 8.68019 15.6312 8.70632L15.6312 8.70632C15.6695 8.7083 15.7077 8.71028 15.7459 8.71202C14.6456 9.82845 13.5374 10.9449 12.4448 12.0456L12.4447 12.0457L12.3964 12.0943ZM19.9492 9.2128C20.1236 9.22922 20.2981 9.24564 20.4746 9.26205C20.4828 9.22101 20.4828 9.19638 20.4828 9.14712L19.9984 8.96651C19.8913 8.95365 19.8042 8.94527 19.7151 8.93668C19.6336 8.92883 19.5504 8.92081 19.4484 8.90904C19.4402 8.99935 19.432 9.08145 19.4238 9.16354C19.6003 9.17996 19.7747 9.19638 19.9492 9.2128Z" fill="white"></path>
                </svg>