<svg width="40" height="40" viewBox="0 0 40 40" fill="none" xmlns="http://www.w3.org/2000/svg">
        <g clip-path="url(#clip0_3507_1413)">
        <path d="M17.89 24.3232C17.7574 24.3232 17.6289 24.281 17.5205 24.2043C17.3518 24.0815 17.2634 23.8782 17.2915 23.6787L17.6289 21.0894L13.5441 22.152C13.3111 22.2134 13.0661 22.1367 12.9135 21.9564L9.31464 17.6562C9.20218 17.5219 9.158 17.3416 9.19816 17.1729C9.23833 17.0041 9.35481 16.8583 9.51547 16.7816L11.3189 15.9223C11.5197 15.8264 11.7567 15.8456 11.9375 15.9683L14.8173 17.9324L25.4572 13.7473C26.1601 13.4711 26.8549 13.333 27.5177 13.333C29.0721 13.333 29.5661 14.0849 29.7228 14.5337C29.9236 15.1129 29.8754 15.7075 29.5822 16.2599C29.2649 16.8583 28.6945 17.3225 27.9836 17.5718L23.6819 19.064L20.6373 23.2146C20.569 23.3066 20.4766 23.3757 20.3682 23.4179L18.1149 24.2772C18.0426 24.304 17.9663 24.3194 17.89 24.3194V24.3232ZM18.3398 19.7315C18.4844 19.7315 18.625 19.7813 18.7335 19.8734C18.8861 20 18.9624 20.188 18.9383 20.3798L18.613 22.854L19.7497 22.4205L22.7982 18.2585C22.8705 18.1625 22.9709 18.0897 23.0874 18.0475L27.5659 16.4939C27.9916 16.3443 28.325 16.0796 28.5057 15.742C28.6544 15.462 28.6785 15.1858 28.578 14.8981C28.4816 14.6257 28.1242 14.4838 27.5177 14.4838C27.0116 14.4838 26.4693 14.5951 25.9151 14.8137L14.97 19.1177C14.7772 19.1944 14.5603 19.1676 14.3916 19.0525L11.5358 17.1038L10.7245 17.4912L13.6164 20.9398L18.1872 19.7507C18.2394 19.7353 18.2916 19.7315 18.3439 19.7315H18.3398Z" fill="#444444"></path>
        <path d="M28.2815 26.8549H10.207C9.8736 26.8549 9.60449 26.5979 9.60449 26.2795C9.60449 25.9611 9.8736 25.7041 10.207 25.7041H28.2815C28.6148 25.7041 28.884 25.9611 28.884 26.2795C28.884 26.5979 28.6148 26.8549 28.2815 26.8549Z" fill="#444444"></path>
        </g>
        <defs>
        <clipPath id="clip0_3507_1413">
        <rect width="20.6612" height="13.5219" fill="white" transform="translate(9.18262 13.333)"></rect>
        </clipPath>
        </defs>
        </svg>