<svg width="19" height="19" viewBox="0 0 19 19" fill="none" xmlns="http://www.w3.org/2000/svg">
<path fill-rule="evenodd" clip-rule="evenodd" d="M19 9.5C19 14.748 14.748 19 9.5 19C4.25196 19 0 14.748 0 9.5C0 4.25196 4.25196 0 9.5 0C14.748 0 19 4.25196 19 9.5ZM8.32551 14.5102C8.65258 14.4953 8.94992 14.3169 9.12833 14.0419L14.1236 6.01369C14.4135 5.54538 14.2723 4.9284 13.804 4.6385C13.3357 4.34859 12.7187 4.48983 12.4288 4.95814L8.19914 11.7523L6.51917 9.52973C6.18466 9.09116 5.56025 9.00196 5.12167 9.33646C4.6831 9.67097 4.5939 10.2954 4.9284 10.734L7.48552 14.1088C7.67136 14.3615 7.9687 14.5027 8.28091 14.5027C8.29577 14.5102 8.31064 14.5102 8.32551 14.5102Z" fill="#098C09"></path>
</svg>