<svg width="16" height="17" viewBox="0 0 16 17" fill="none" xmlns="http://www.w3.org/2000/svg">
                    <mask id="mask0_4036_116925" style="mask-type:luminance" maskUnits="userSpaceOnUse" x="0" y="1" width="16" height="15">
                    <path fill-rule="evenodd" clip-rule="evenodd" d="M13.5147 5.69569C13.5147 6.01755 13.7088 6.44898 13.9496 6.65443L15.7961 8.25005C16.0303 8.45549 16.0704 8.82529 15.8764 9.07867L15.5553 9.48956C15.3613 9.73609 15.0067 9.77718 14.7658 9.57174L8.51708 4.23018C8.27623 4.02474 7.8815 4.02474 7.64065 4.22334L1.1912 9.57174C0.950346 9.77034 0.602451 9.7224 0.421813 9.46217L0.107368 9.01019C-0.07327 8.74996 -0.0197475 8.36647 0.221103 8.16787L7.65403 2.01138C7.89488 1.81279 8.28961 1.81279 8.53046 2.01823L11.3203 4.40139C11.5612 4.60683 11.7552 4.51096 11.7552 4.18909V3.98365C11.7552 3.66179 12.0094 3.40156 12.3239 3.40156H12.9461C13.2605 3.40156 13.5147 3.66179 13.5147 3.98365V5.69569ZM2.4 10.122C2.4 9.80221 2.60085 9.38036 2.84187 9.17625L7.57521 5.21637C7.81623 5.01225 8.21123 5.01225 8.45225 5.21637L13.0048 9.06738C13.2458 9.2647 13.44 9.69335 13.44 10.0131V14.5649C13.44 14.8847 13.1856 15.1433 12.8709 15.1433H10.0122C9.69751 15.1433 9.44311 14.8847 9.44311 14.5649V11.7617C9.44311 11.442 9.1887 11.1834 8.87403 11.1834H6.96597C6.6513 11.1834 6.3969 11.442 6.3969 11.7617V14.5649C6.3969 14.8847 6.14249 15.1433 5.82782 15.1433H2.96907C2.65441 15.1433 2.4 14.8847 2.4 14.5649V10.122Z" fill="white"></path>
                    </mask>
                    <g mask="url(#mask0_4036_116925)">
                    <path fill-rule="evenodd" clip-rule="evenodd" d="M13.5147 5.69569C13.5147 6.01755 13.7088 6.44898 13.9496 6.65443L15.7961 8.25005C16.0303 8.45549 16.0704 8.82529 15.8764 9.07867L15.5553 9.48956C15.3613 9.73609 15.0067 9.77718 14.7658 9.57174L8.51708 4.23018C8.27623 4.02474 7.8815 4.02474 7.64065 4.22334L1.1912 9.57174C0.950346 9.77034 0.602451 9.7224 0.421813 9.46217L0.107368 9.01019C-0.07327 8.74996 -0.0197475 8.36647 0.221103 8.16787L7.65403 2.01138C7.89488 1.81279 8.28961 1.81279 8.53046 2.01823L11.3203 4.40139C11.5612 4.60683 11.7552 4.51096 11.7552 4.18909V3.98365C11.7552 3.66179 12.0094 3.40156 12.3239 3.40156H12.9461C13.2605 3.40156 13.5147 3.66179 13.5147 3.98365V5.69569ZM2.4 10.122C2.4 9.80221 2.60085 9.38036 2.84187 9.17625L7.57521 5.21637C7.81623 5.01225 8.21123 5.01225 8.45225 5.21637L13.0048 9.06738C13.2458 9.2647 13.44 9.69335 13.44 10.0131V14.5649C13.44 14.8847 13.1856 15.1433 12.8709 15.1433H10.0122C9.69751 15.1433 9.44311 14.8847 9.44311 14.5649V11.7617C9.44311 11.442 9.1887 11.1834 8.87403 11.1834H6.96597C6.6513 11.1834 6.3969 11.442 6.3969 11.7617V14.5649C6.3969 14.8847 6.14249 15.1433 5.82782 15.1433H2.96907C2.65441 15.1433 2.4 14.8847 2.4 14.5649V10.122Z" fill="white"></path>
                    </g>
                </svg>