<svg width="30" height="30" viewBox="0 0 30 30" fill="none" xmlns="http://www.w3.org/2000/svg"><mask id="mask0_4220_46720" style="mask-type:luminance" maskUnits="userSpaceOnUse" x="0" y="0" width="30" height="30"><path fill-rule="evenodd" clip-rule="evenodd" d="M22.4059 1.36933C22.0671 0.453877 21.0636 -0.00551644 20.1642 0.343271L3.78479 6.69509L22.832 2.52054L22.4059 1.36933ZM23.7144 3.02963L23.7128 3.02973C23.7112 3.0299 23.7096 3.03024 23.7083 3.03024C23.7384 3.03015 23.7684 3.03111 23.7983 3.03305C23.702 3.03864 23.6051 3.05125 23.5079 3.07201L1.91584 7.67642C0.864986 7.90102 0.194639 8.93691 0.41789 9.9913L4.32879 28.454C4.35525 28.5781 4.39479 28.6959 4.44205 28.8086C4.45195 28.8318 4.46371 28.8536 4.47551 28.8755L4.47552 28.8755C4.48252 28.8885 4.48952 28.9015 4.49616 28.9148C4.53242 28.9876 4.56988 29.0592 4.61417 29.1263C4.63493 29.1575 4.65785 29.1868 4.68085 29.2162L4.69682 29.2366C4.74141 29.2945 4.78748 29.3506 4.83802 29.4028C4.87102 29.4368 4.9055 29.469 4.94117 29.5006C4.99439 29.548 5.04997 29.5925 5.10794 29.6336C5.1457 29.6608 5.18404 29.6876 5.22418 29.7121C5.2869 29.7503 5.3523 29.7831 5.41919 29.8141L5.45256 29.8299C5.48114 29.8436 5.50975 29.8573 5.53928 29.8687C5.61717 29.8985 5.69803 29.9203 5.77948 29.9403C5.79342 29.9435 5.80716 29.9475 5.8209 29.9515L5.82092 29.9515L5.82094 29.9515C5.8403 29.9571 5.85968 29.9627 5.87966 29.9662C5.99619 29.988 6.11569 29.9999 6.23668 29.9993C6.36867 29.999 6.50185 29.9856 6.63592 29.957L28.2276 25.3523C28.7532 25.2401 29.1834 24.9251 29.4545 24.5064C29.7256 24.0873 29.8377 23.5647 29.7262 23.0374L28.5124 17.3097L22.1208 18.6728L20.6362 11.6658L27.0282 10.3024L25.815 4.575C25.7885 4.45092 25.749 4.3334 25.7017 4.22065C25.6916 4.19692 25.6795 4.17453 25.6675 4.15216C25.6607 4.13967 25.654 4.12718 25.6476 4.11447C25.6114 4.04139 25.5739 3.96951 25.5296 3.9027C25.5101 3.87339 25.4888 3.84599 25.4673 3.81851L25.4673 3.81849L25.4673 3.81847L25.4473 3.79263C25.4027 3.73477 25.356 3.6784 25.3055 3.6259C25.2728 3.5922 25.238 3.55998 25.2029 3.52866C25.1494 3.48094 25.0938 3.4365 25.0358 3.39504L25.0283 3.38974C24.9928 3.36464 24.9571 3.33946 24.9199 3.31689C24.8572 3.27871 24.7912 3.2459 24.7246 3.21488L24.6912 3.19905C24.6626 3.18537 24.634 3.17168 24.6045 3.1603C24.5266 3.13047 24.4458 3.1087 24.3643 3.08901C24.3511 3.08574 24.3382 3.08192 24.3252 3.07811C24.3051 3.07219 24.285 3.06628 24.2644 3.06247C24.1476 3.04069 24.0284 3.02906 23.9074 3.02966C23.8725 3.02981 23.8376 3.03085 23.8025 3.03281C23.7733 3.03073 23.7439 3.02963 23.7144 3.02963ZM24.6174 3.02963C24.6515 3.04539 24.6853 3.0616 24.7186 3.07873C24.6854 3.0616 24.6517 3.04539 24.6174 3.02963ZM24.7186 3.07873C24.7518 3.09585 24.7845 3.11388 24.8165 3.13327C24.7844 3.11388 24.7517 3.09585 24.7186 3.07873ZM27.1121 11.1795L21.5871 12.3684L22.6803 17.5751L28.2056 16.3862L29.4659 16.1151L28.373 10.9084L27.1121 11.1795ZM23.1991 15.1529C23.3698 15.311 23.6104 15.3876 23.8549 15.3352C24.2569 15.2488 24.5132 14.8488 24.4282 14.4423C24.3425 14.0354 23.9475 13.7757 23.5459 13.8624C23.3014 13.9151 23.1125 14.0838 23.0193 14.2986C22.9594 14.4373 22.9391 14.5957 22.9727 14.7553C23.006 14.9149 23.0886 15.0506 23.1991 15.1529Z" fill="white"></path></mask><g mask="url(#mask0_4220_46720)">
        <path fill-rule="evenodd" clip-rule="evenodd" d="M22.4059 1.36933C22.0671 0.453877 21.0636 -0.00551644 20.1642 0.343271L3.78479 6.69509L22.832 2.52054L22.4059 1.36933ZM23.7144 3.02963L23.7128 3.02973C23.7112 3.0299 23.7096 3.03024 23.7083 3.03024C23.7384 3.03015 23.7684 3.03111 23.7983 3.03305C23.702 3.03864 23.6051 3.05125 23.5079 3.07201L1.91584 7.67642C0.864986 7.90102 0.194639 8.93691 0.41789 9.9913L4.32879 28.454C4.35525 28.5781 4.39479 28.6959 4.44205 28.8086C4.45195 28.8318 4.46371 28.8536 4.47551 28.8755L4.47552 28.8755C4.48252 28.8885 4.48952 28.9015 4.49616 28.9148C4.53242 28.9876 4.56988 29.0592 4.61417 29.1263C4.63493 29.1575 4.65785 29.1868 4.68085 29.2162L4.69682 29.2366C4.74141 29.2945 4.78748 29.3506 4.83802 29.4028C4.87102 29.4368 4.9055 29.469 4.94117 29.5006C4.99439 29.548 5.04997 29.5925 5.10794 29.6336C5.1457 29.6608 5.18404 29.6876 5.22418 29.7121C5.2869 29.7503 5.3523 29.7831 5.41919 29.8141L5.45256 29.8299C5.48114 29.8436 5.50975 29.8573 5.53928 29.8687C5.61717 29.8985 5.69803 29.9203 5.77948 29.9403C5.79342 29.9435 5.80716 29.9475 5.8209 29.9515L5.82092 29.9515L5.82094 29.9515C5.8403 29.9571 5.85968 29.9627 5.87966 29.9662C5.99619 29.988 6.11569 29.9999 6.23668 29.9993C6.36867 29.999 6.50185 29.9856 6.63592 29.957L28.2276 25.3523C28.7532 25.2401 29.1834 24.9251 29.4545 24.5064C29.7256 24.0873 29.8377 23.5647 29.7262 23.0374L28.5124 17.3097L22.1208 18.6728L20.6362 11.6658L27.0282 10.3024L25.815 4.575C25.7885 4.45092 25.749 4.3334 25.7017 4.22065C25.6916 4.19692 25.6795 4.17453 25.6675 4.15216C25.6607 4.13967 25.654 4.12718 25.6476 4.11447C25.6114 4.04139 25.5739 3.96951 25.5296 3.9027C25.5101 3.87339 25.4888 3.84599 25.4673 3.81851L25.4673 3.81849L25.4673 3.81847L25.4473 3.79263C25.4027 3.73477 25.356 3.6784 25.3055 3.6259C25.2728 3.5922 25.238 3.55998 25.2029 3.52866C25.1494 3.48094 25.0938 3.4365 25.0358 3.39504L25.0283 3.38974C24.9928 3.36464 24.9571 3.33946 24.9199 3.31689C24.8572 3.27871 24.7912 3.2459 24.7246 3.21488L24.6912 3.19905C24.6626 3.18537 24.634 3.17168 24.6045 3.1603C24.5266 3.13047 24.4458 3.1087 24.3643 3.08901C24.3511 3.08574 24.3382 3.08192 24.3252 3.07811C24.3051 3.07219 24.285 3.06628 24.2644 3.06247C24.1476 3.04069 24.0284 3.02906 23.9074 3.02966C23.8725 3.02981 23.8376 3.03085 23.8025 3.03281C23.7733 3.03073 23.7439 3.02963 23.7144 3.02963ZM24.6174 3.02963C24.6515 3.04539 24.6853 3.0616 24.7186 3.07873C24.6854 3.0616 24.6517 3.04539 24.6174 3.02963ZM24.7186 3.07873C24.7518 3.09585 24.7845 3.11388 24.8165 3.13327C24.7844 3.11388 24.7517 3.09585 24.7186 3.07873ZM27.1121 11.1795L21.5871 12.3684L22.6803 17.5751L28.2056 16.3862L29.4659 16.1151L28.373 10.9084L27.1121 11.1795ZM23.1991 15.1529C23.3698 15.311 23.6104 15.3876 23.8549 15.3352C24.2569 15.2488 24.5132 14.8488 24.4282 14.4423C24.3425 14.0354 23.9475 13.7757 23.5459 13.8624C23.3014 13.9151 23.1125 14.0838 23.0193 14.2986C22.9594 14.4373 22.9391 14.5957 22.9727 14.7553C23.006 14.9149 23.0886 15.0506 23.1991 15.1529Z" fill="#2378CD"></path></g></svg>